<?xml version="1.0" standalone="no"?>
<!DOCTYPE svg PUBLIC "-//W3C//DTD SVG 20010904//EN"
 "http://www.w3.org/TR/2001/REC-SVG-20010904/DTD/svg10.dtd">
<svg version="1.0" xmlns="http://www.w3.org/2000/svg"
 width="405.000000pt" height="405.000000pt" viewBox="0 0 405.000000 405.000000"
 preserveAspectRatio="xMidYMid meet">
<metadata>
Created by potrace 1.14, written by Peter Selinger 2001-2017
</metadata>
<g transform="translate(0.000000,405.000000) scale(0.100000,-0.100000)"
fill="#000000" stroke="none">
<path d="M3105 3367 c9 -16 28 -58 41 -94 22 -58 39 -140 115 -570 21 -117 32
-144 42 -105 3 12 5 10 6 -7 1 -20 3 -22 17 -10 10 8 14 23 11 43 -3 17 -1 39
4 48 13 24 -31 237 -77 380 -39 119 -109 265 -150 313 l-26 30 17 -28z"/>
<path d="M848 3030 c-25 -59 -56 -171 -74 -265 -9 -49 -18 -92 -20 -94 -2 -2
-10 2 -19 9 -8 7 -15 11 -16 9 0 -2 -2 -25 -4 -51 -4 -43 -1 -49 25 -68 17
-12 34 -19 39 -16 5 3 12 30 16 59 4 28 22 113 40 187 42 170 50 223 37 246
-9 16 -12 14 -24 -16z"/>
<path d="M1413 2834 c7 -12 -21 -95 -36 -105 -5 -3 -8 -8 -6 -10 4 -7 -30
-103 -51 -145 -11 -21 -20 -44 -20 -51 0 -7 -4 -13 -9 -13 -5 0 -13 -18 -19
-39 l-9 -39 61 -11 c110 -18 230 -25 222 -12 -4 6 -4 11 1 11 8 0 15 63 17
152 1 27 4 48 8 48 3 0 10 15 13 33 4 17 14 41 21 52 25 36 15 103 -18 124
-11 7 -17 8 -14 2 4 -5 2 -12 -4 -16 -5 -3 -10 1 -10 9 0 9 -5 16 -11 16 -6 0
-8 -7 -5 -16 4 -12 1 -14 -14 -9 -11 3 -30 -1 -45 -11 -14 -9 -25 -13 -23 -8
2 5 0 9 -3 9 -4 0 -17 9 -30 20 -12 11 -20 15 -16 9z"/>
<path d="M1895 2821 c-3 -5 -1 -12 5 -16 5 -3 10 1 10 9 0 18 -6 21 -15 7z"/>
<path d="M1830 2605 l0 -205 48 33 47 34 3 173 c2 141 0 171 -11 162 -8 -7
-18 -7 -27 -2 -8 6 -25 10 -37 10 l-23 0 0 -205z"/>
<path d="M1951 2588 c0 -62 3 -109 9 -113 6 -3 10 3 10 14 0 12 5 21 11 21 5
0 7 -6 4 -12 -4 -7 0 -5 9 5 15 19 12 47 -5 47 -13 0 -11 -18 4 -23 7 -4 6 -6
-4 -6 -10 -1 -19 9 -21 24 -3 13 -2 22 2 20 4 -3 4 12 0 33 -5 20 -10 51 -13
67 -2 17 -5 -18 -6 -77z"/>
<path d="M2077 2599 c4 -13 8 -18 11 -10 2 7 -1 18 -6 23 -8 8 -9 4 -5 -13z"/>
<path d="M1997 2588 c-4 -12 -4 -24 -2 -27 3 -2 5 1 5 8 0 7 4 10 9 7 5 -4 7
3 4 14 -7 25 -9 25 -16 -2z"/>
<path d="M3357 2593 c-4 -3 -7 -14 -7 -23 0 -10 -7 -23 -15 -30 -8 -7 -15 -18
-15 -24 0 -6 5 -4 10 4 8 13 10 12 10 -3 0 -11 -10 -27 -22 -38 -13 -10 -18
-18 -11 -19 6 0 9 -9 6 -20 -3 -11 0 -20 6 -20 6 0 11 11 11 25 0 13 6 28 14
32 7 4 17 34 20 66 7 56 6 64 -7 50z"/>
<path d="M682 2518 c2 -62 1 -73 -13 -70 -25 4 -18 -28 8 -34 22 -6 23 -9 18
-98 -10 -217 -9 -320 3 -312 4 3 57 -98 117 -224 59 -126 121 -251 137 -277
l28 -48 -6 35 c-3 19 -10 47 -14 63 -5 15 -7 27 -4 27 28 0 205 -265 188 -282
-2 -3 22 -26 55 -52 120 -94 236 -272 294 -451 36 -108 59 -212 102 -455 20
-113 41 -209 46 -214 6 -6 9 -4 9 7 0 49 -86 605 -125 807 -25 129 -46 250
-47 267 -1 21 10 51 32 85 95 152 128 207 124 211 -3 2 2 10 11 17 8 7 15 17
15 22 0 6 6 24 14 41 31 72 39 100 39 143 0 46 -11 66 -38 70 -23 3 -85 44
-85 57 0 6 -6 18 -14 26 -7 9 -18 31 -24 49 -10 29 -9 33 6 28 9 -3 55 -15
102 -26 47 -12 90 -27 96 -33 12 -13 16 -79 34 -617 6 -173 17 -470 25 -659 7
-190 11 -352 8 -360 -3 -9 -40 -49 -82 -89 -42 -41 -65 -68 -51 -61 18 9 107
13 332 13 168 1 310 5 315 9 4 5 -19 33 -51 61 l-59 53 7 229 c8 260 32 971
42 1236 4 97 10 181 14 187 3 6 91 34 195 62 399 106 803 253 790 286 -3 8 -5
24 -5 35 0 24 9 25 -215 -25 -190 -43 -250 -51 -545 -77 -333 -29 -896 -24
-1040 10 -33 8 -32 8 18 9 29 1 52 6 52 12 0 5 -6 7 -12 3 -9 -5 -9 -2 1 9 8
11 9 17 2 17 -21 0 11 49 38 58 24 9 22 10 -24 16 -69 10 -77 14 -28 15 23 1
45 6 48 12 14 21 -32 37 -144 48 -64 6 -134 14 -155 17 -35 6 -38 4 -34 -14 4
-15 0 -22 -16 -26 -19 -6 -20 -7 -3 -17 21 -12 23 -33 2 -25 -8 3 -15 1 -15
-5 0 -6 -5 -7 -12 -3 -7 4 -8 3 -4 -4 4 -6 14 -9 24 -6 9 3 6 -2 -8 -11 -14
-9 -17 -14 -8 -11 13 4 15 1 11 -12 -4 -9 -11 -20 -17 -24 -8 -5 -7 -8 1 -8 7
0 17 8 23 18 11 16 11 16 6 0 -3 -10 2 -22 12 -27 9 -6 12 -11 6 -11 -6 0 -13
2 -16 5 -3 3 -41 8 -84 10 -44 3 -117 14 -164 25 -47 11 -110 25 -140 32 -30
7 -58 17 -62 23 -5 5 -7 51 -6 102 1 91 1 93 -33 132 -19 22 -38 40 -42 40 -5
1 -7 -32 -5 -71z m53 12 c14 -16 16 -23 7 -32 -14 -14 -27 -4 -37 30 -8 27 6
29 30 2z m15 -81 c0 -6 -4 -7 -10 -4 -5 3 -10 11 -10 16 0 6 5 7 10 4 6 -3 10
-11 10 -16z m92 -248 c26 -11 55 -22 65 -24 10 -1 29 -10 43 -19 24 -16 298
-118 316 -118 8 0 8 -65 1 -370 -2 -74 0 -77 56 -181 67 -124 77 -158 13 -47
-130 228 -315 416 -516 525 l-71 38 6 75 c7 85 22 153 33 146 4 -2 28 -13 54
-25z"/>
<path d="M3542 2539 l-2 -55 -58 4 -58 4 4 -42 4 -41 54 7 54 6 0 -155 0 -154
-31 -7 c-17 -3 -49 -6 -71 -6 -38 0 -39 -1 -36 -32 3 -32 4 -33 53 -33 49 0
50 1 53 33 5 48 28 40 45 -15 14 -46 15 -39 14 142 -1 119 -3 160 -6 110 -5
-64 -7 -42 -11 105 -3 102 -7 160 -8 129z"/>
<path d="M2039 2561 c6 -10 7 -21 4 -25 -3 -3 -2 -6 4 -6 18 0 22 12 10 31
-15 25 -31 25 -18 0z"/>
<path d="M498 2500 c-4 -41 -7 -79 -8 -85 0 -5 2 -49 6 -97 4 -59 3 -88 -5
-88 -6 0 -12 29 -14 68 -2 37 -4 -16 -5 -118 -1 -122 2 -180 8 -170 5 8 10 25
10 37 0 12 5 25 10 28 6 4 10 75 10 180 l0 173 38 -9 c68 -16 79 -13 77 21 -1
19 4 34 14 40 30 16 2 22 -63 13 l-65 -9 -3 45 c-3 39 -4 35 -10 -29z m-1
-387 c-2 -21 -4 -4 -4 37 0 41 2 58 4 38 2 -21 2 -55 0 -75z"/>
<path d="M2021 2524 c0 -11 3 -14 6 -6 3 7 2 16 -1 19 -3 4 -6 -2 -5 -13z"/>
<path d="M2076 2522 c-2 -4 -1 -14 5 -22 7 -12 9 -10 9 8 0 23 -5 28 -14 14z"/>
<path d="M3563 2480 c0 -25 2 -35 4 -22 2 12 2 32 0 45 -2 12 -4 2 -4 -23z"/>
<path d="M2033 2493 c-10 -4 -10 -7 0 -17 15 -17 37 -9 37 13 0 13 -2 13 -9 2
-5 -7 -10 -9 -12 -4 -2 6 -9 8 -16 6z"/>
<path d="M1978 2443 c7 -3 16 -2 19 1 4 3 -2 6 -13 5 -11 0 -14 -3 -6 -6z"/>
<path d="M2076 2437 c3 -10 9 -15 12 -12 3 3 0 11 -7 18 -10 9 -11 8 -5 -6z"/>
<path d="M888 2383 c7 -3 16 -2 19 1 4 3 -2 6 -13 5 -11 0 -14 -3 -6 -6z"/>
<path d="M2013 2277 c40 -6 65 -6 80 1 17 8 5 11 -58 10 l-80 -1 58 -10z"/>
<path d="M527 2103 c6 -4 13 -22 15 -38 3 -29 5 -30 56 -33 l52 -3 0 35 c0 36
-1 36 -42 36 -24 0 -54 3 -68 6 -15 3 -20 2 -13 -3z"/>
<path d="M3320 2090 c0 -12 8 -35 17 -53 l18 -32 5 45 c7 54 5 60 -21 60 -12
0 -19 -7 -19 -20z"/>
<path d="M537 2004 c-3 -3 -1 -15 6 -25 9 -14 24 -19 59 -19 45 0 48 2 48 25
0 24 -3 25 -53 25 -30 0 -56 -3 -60 -6z"/>
<path d="M3400 1985 c0 -23 3 -25 48 -25 35 0 50 5 59 19 16 26 8 31 -54 31
-50 0 -53 -1 -53 -25z"/>
<path d="M3308 1988 c-23 -19 -88 -124 -88 -144 0 -9 -20 -45 -45 -80 -25 -34
-47 -76 -49 -91 -8 -71 -171 -322 -184 -284 -4 11 -6 11 -13 0 -7 -11 -9 -9
-9 6 0 11 7 31 16 43 24 34 7 46 -29 20 -29 -21 -132 -122 -198 -195 -35 -38
-63 -83 -53 -83 5 0 4 -4 -1 -8 -6 -4 -25 -27 -43 -52 -32 -43 -33 -44 -28
-15 3 17 -1 10 -9 -15 -14 -41 -57 -226 -69 -295 -3 -16 -12 -67 -20 -112 -16
-87 -76 -485 -76 -505 0 -37 13 20 45 197 19 110 38 208 41 219 4 12 2 16 -5
12 -6 -4 -11 -3 -11 2 0 6 6 12 14 15 7 3 17 23 21 43 13 70 57 198 93 269 72
144 173 264 282 338 33 22 60 51 76 81 13 25 23 48 22 50 -2 2 0 8 5 12 7 7
11 -11 7 -31 -1 -5 9 0 22 13 14 12 27 20 29 17 5 -5 289 563 289 578 0 11
-14 8 -32 -5z m-288 -570 c0 -18 -2 -20 -9 -8 -6 8 -7 18 -5 22 9 14 14 9 14
-14z"/>
<path d="M688 1970 c-3 -14 -6 -313 -7 -666 l-1 -640 61 -43 c33 -23 62 -41
65 -39 7 8 214 718 214 736 -1 9 -74 166 -164 347 -131 266 -163 325 -168 305z"/>
<path d="M3364 1795 c0 -104 2 -146 3 -92 2 54 2 139 0 190 -1 51 -3 7 -3 -98z"/>
<path d="M3449 1672 l-36 -16 -7 -96 c-3 -52 -5 -261 -5 -465 l1 -370 24 95
c21 83 26 141 40 460 8 201 20 373 25 382 17 33 12 34 -42 10z"/>
<path d="M586 1653 c-17 -5 -18 -14 -11 -176 3 -95 11 -192 17 -217 5 -25 14
-74 19 -110 6 -36 11 -74 13 -85 2 -11 5 -40 7 -65 5 -77 15 215 14 440 0 208
-1 215 -20 217 -11 0 -28 -1 -39 -4z"/>
</g>
</svg>
